<svg xmlns="http://www.w3.org/2000/svg" viewBox="0 0 320 320" role="img" aria-labelledby="title desc">
  <title id="title">RRDS founder technician avatar</title>
  <desc id="desc">Neutral illustrated male air-conditioning technician in a clean work uniform.</desc>
  <rect width="320" height="320" rx="36" fill="#e0f2fe"/>
  <circle cx="160" cy="116" r="54" fill="#f7c59f"/>
  <path d="M111 115c5-40 26-63 57-63 30 0 50 23 55 62-16-8-33-12-52-12-22 0-42 4-60 13z" fill="#172033"/>
  <path d="M110 143c15 23 31 35 50 35s36-12 50-35c-6 40-25 62-50 62s-44-22-50-62z" fill="#d99066" opacity=".25"/>
  <path d="M65 288c7-59 43-93 95-93s88 34 95 93H65z" fill="#1d4ed8"/>
  <path d="M98 288v-58c15-23 36-35 62-35s47 12 62 35v58H98z" fill="#f8fafc"/>
  <path d="M98 230c15-23 36-35 62-35s47 12 62 35l-25 25-37-45-37 45-25-25z" fill="#2563eb"/>
  <path d="M128 215l32 36 32-36" fill="none" stroke="#172033" stroke-width="8" stroke-linecap="round" stroke-linejoin="round"/>
  <rect x="122" y="248" width="76" height="18" rx="9" fill="#0f172a"/>
  <circle cx="142" cy="115" r="5" fill="#172033"/>
  <circle cx="178" cy="115" r="5" fill="#172033"/>
  <path d="M144 145c11 8 22 8 33 0" fill="none" stroke="#172033" stroke-width="6" stroke-linecap="round"/>
  <path d="M220 209l35-35" stroke="#0f172a" stroke-width="12" stroke-linecap="round"/>
  <path d="M250 165l18 18" stroke="#0f172a" stroke-width="12" stroke-linecap="round"/>
  <path d="M230 219l35-35" stroke="#94a3b8" stroke-width="5" stroke-linecap="round"/>
</svg>
